<svg xmlns="http://www.w3.org/2000/svg" fill="none" viewBox="0 0 24 24"><path fill="#fff" d="M3.5 21h17c.275 0 .5-.225.5-.5v-17c0-.275-.225-.5-.5-.5h-17c-.275 0-.5.225-.5.5v17c0 .275.225.5.5.5z"/><path stroke="#FF9810" d="M16 9.5a1.5 1.5 0 1 0 0-3 1.5 1.5 0 0 0 0 3z" clip-rule="evenodd"/><path stroke="#A6CCC3" d="m14.116 12.815-1.162 1.702-2.103-2.9a1 1 0 0 0-1.619 0l-3.115 4.296a1 1 0 0 0 .81 1.587h10.146a1 1 0 0 0 .826-1.564l-2.13-3.121a1 1 0 0 0-1.653 0z" clip-rule="evenodd"/><path fill="#605E5C" fill-rule="evenodd" d="M3.5 22h17c.827 0 1.5-.673 1.5-1.5v-17c0-.827-.673-1.5-1.5-1.5h-17C2.673 2 2 2.673 2 3.5v17c0 .827.673 1.5 1.5 1.5zM3 3.5a.5.5 0 0 1 .5-.5h17a.5.5 0 0 1 .5.5v17a.5.5 0 0 1-.5.5h-17a.5.5 0 0 1-.5-.5v-17z" clip-rule="evenodd" opacity=".64"/></svg>